# xmcd
#
# Track frame offsets: 
#        150
#        27697
#        61009
#
# Disc length: 1335 seconds
#
# Revision: 3
# Processed by: cddbd v1.5.1PL0 Copyright (c) Steve Scherf et al.
# Submitted via: ExactAudioCopy v0.95a5
#
DISCID=20053503
DTITLE=Mijk's Magic Marble Box - Tokyo Trax Remixes
DYEAR=1996
DGENRE=Ambient
TTITLE0=Gamer's Night [Quazar's Remix]
TTITLE1=Gamer's Night [Takkyu Ishino's Remix]
TTITLE2=Gamer's Night [Fumiya Tanaka's Remix]
EXTD=
EXTT0=
EXTT1=
EXTT2=
PLAYORDER=
